<svg width="126" height="28" viewBox="0 0 126 28" fill="none" xmlns="http://www.w3.org/2000/svg">
<g clip-path="url(#clip0_1458_81868)">
<path d="M49.4547 8.8039L49.4522 8.79896C49.2774 8.49803 48.9528 8.31084 48.6049 8.31084H46.8085C46.46 8.31084 46.1351 8.49846 45.9609 8.80051L38.8125 21.1843L34.1515 12.4063C32.8379 9.8126 31.5656 8.31084 28.9485 8.31084C28.9471 8.31084 28.9454 8.31084 28.944 8.31084C28.407 8.31171 27.9702 8.75074 27.9702 9.28983V10.8606C27.9702 11.3975 28.4138 11.8367 28.9589 11.8395C29.7551 11.8434 30.098 12.3382 31.2216 14.4588L37.9178 26.6564C38.0869 26.9663 38.4144 27.1614 38.7771 27.1655C39.1245 27.1655 39.4485 26.9789 39.6227 26.6791L49.4508 9.78202C49.6259 9.48109 49.6273 9.10637 49.4547 8.8039" fill="white"/>
<path d="M94.5921 22.6045C93.8018 22.6045 93.0768 22.9965 92.6521 23.6527C92.2301 24.3042 92.1754 25.0953 92.5017 25.8221C92.8128 26.5137 93.4674 27.0172 94.2097 27.1353C94.3352 27.1553 94.462 27.1655 94.5882 27.1655C95.1426 27.1655 95.6762 26.9707 96.0906 26.6178C96.6004 26.1821 96.8928 25.5438 96.8928 24.8659C96.8928 23.6193 95.8606 22.6045 94.5921 22.6045" fill="#4460DE"/>
<path d="M125.007 8.31075C125.005 8.31075 125.003 8.31075 125.002 8.31075C122.386 8.31075 121.115 9.80976 119.808 12.3909L115.197 21.074L110.789 12.3931C109.485 9.81832 108.231 8.32335 105.677 8.30077L102.783 8.29816V1.09671C102.783 0.556971 102.345 0.11792 101.804 0.11792H100.297C99.7572 0.11792 99.3181 0.556971 99.3181 1.09671V8.29782H96.8346C96.2948 8.29782 95.8557 8.73684 95.8557 9.27639V10.7192C95.8557 11.2592 96.2948 11.6982 96.8346 11.6982H99.3181V20.8834C99.3181 22.9924 99.9323 24.6188 101.144 25.718C102.198 26.6726 103.655 27.1658 105.399 27.1658C105.719 27.1658 106.049 27.149 106.387 27.1159C106.891 27.0668 107.271 26.6479 107.271 26.1416V24.7941C107.271 24.5319 107.169 24.2859 106.983 24.101C106.798 23.9169 106.554 23.816 106.293 23.816C106.291 23.816 106.29 23.816 106.288 23.816L106.103 23.8168C105.325 23.8215 104.145 23.8319 103.469 23.1609C103.014 22.708 102.783 21.9415 102.783 20.8834V11.6982H105.395C106.308 11.6982 106.683 12.2205 107.771 14.2787L114.263 26.5451C114.378 26.8367 114.625 27.0559 114.93 27.134C115.357 27.2444 115.82 27.0432 116.033 26.6575L122.66 14.5899L122.735 14.449C123.854 12.3372 124.196 11.8431 124.993 11.8392C125.538 11.8364 125.981 11.3973 125.981 10.8604V9.28974C125.981 8.75022 125.544 8.31117 125.007 8.31075" fill="#4460DE"/>
<path d="M64.7525 18.4746C64.4767 21.256 62.2586 23.4746 59.4774 23.7499C57.6947 23.9287 55.9518 23.3064 54.6944 22.049C53.4369 20.7917 52.8171 19.0485 52.9936 17.2662C53.2691 14.4853 55.4875 12.2666 58.2687 11.9912C58.4685 11.9715 58.6677 11.9616 58.8657 11.9616C60.4355 11.9616 61.9351 12.5756 63.0514 13.6921C64.3089 14.9495 64.9289 16.6928 64.7525 18.4746V18.4746ZM69.024 23.5968L68.9814 23.5844C68.2373 23.3584 68.1568 22.1057 68.1568 21.5754V0.979752C68.1568 0.439784 67.7174 0.00073358 67.1776 0.00073358H65.6702C65.1304 0.00073358 64.6913 0.439784 64.6913 0.981071L64.7241 10.696C62.8806 9.17696 60.5171 8.42088 58.0981 8.60257C53.6403 8.9377 50.057 12.4006 49.5769 16.8361C49.2871 19.5161 50.1111 22.0877 51.8966 24.0774C53.6585 26.0397 56.1805 27.1655 58.8161 27.1655C61.1899 27.1655 63.4111 26.2892 65.1338 24.6858C65.547 25.3823 66.2686 26.0972 66.7543 26.409C67.2843 26.7493 67.9135 26.9715 68.574 27.0523C68.9059 27.0925 69.2403 26.9882 69.4906 26.7663C69.7406 26.5446 69.8837 26.2262 69.8837 25.8926V24.7144C69.8837 24.1996 69.5394 23.7541 69.024 23.5968" fill="white"/>
<path d="M83.2707 17.6202L89.2896 9.78347C89.5186 9.4856 89.5573 9.09105 89.3912 8.75384C89.2254 8.41717 88.889 8.20806 88.5136 8.20806H86.5892C86.2876 8.20806 85.9975 8.35084 85.8143 8.58954L81.1071 14.7004L76.399 8.5889C76.2118 8.3468 75.9293 8.20806 75.6241 8.20806H73.7636C73.393 8.20806 73.0482 8.42264 72.8861 8.75406C72.7197 9.09192 72.7587 9.48647 72.9873 9.78291L78.9756 17.5884L75.4916 22.1497C75.2419 22.4816 74.6906 23.0262 74.6401 23.0754C74.2737 23.3459 73.6436 23.5499 73.5631 23.5751C73.5412 23.5812 73.5201 23.5884 73.4994 23.5952L73.4576 23.6102C72.9893 23.7886 72.6824 24.213 72.6824 24.6988V25.8773C72.6824 26.5287 73.2356 27.0397 73.9418 27.0397C75.4585 27.0397 77.2827 25.4018 77.9342 24.602L81.1329 20.5009L85.8783 26.6817C86.062 26.9203 86.3519 27.0627 86.6532 27.0627H88.5136C88.8879 27.0627 89.2243 26.8542 89.3917 26.5167C89.5576 26.1794 89.5186 25.786 89.2905 25.4895L83.2707 17.6202Z" fill="white"/>
<path d="M20.299 17.0168L8.80031 24.2186C7.92366 24.7686 6.78936 24.1327 6.78936 23.1015V16.4669H10.141V18.6153C10.141 18.9934 10.5706 19.2341 10.8972 19.0279L15.1942 16.3293C15.5035 16.1231 15.5035 15.6761 15.1942 15.4872L10.8972 12.7886C10.5706 12.5823 10.141 12.8058 10.141 13.2012V15.3496H6.78936V8.68061C6.78936 7.64936 7.92366 7.01346 8.80031 7.56342L20.299 14.7652C21.1069 15.2808 21.1069 16.4841 20.299 17.0168V17.0168ZM12.1175 3.76487C5.42524 3.76487 0 9.19011 0 15.8825C0 22.5748 5.42524 28 12.1175 28C18.8099 28 24.2351 22.5748 24.2351 15.8825C24.2351 9.19011 18.8099 3.76487 12.1175 3.76487Z" fill="#4460DE"/>
</g>
<defs>
<clipPath id="clip0_1458_81868">
<rect width="125.98" height="28" fill="white"/>
</clipPath>
</defs>
</svg>
